<svg width="128" height="128" viewBox="0 0 128 128" fill="none" xmlns="http://www.w3.org/2000/svg">
<path d="M94.0242 17.7818L94.0402 17.7617C94.0402 17.7617 91.6113 17.3536 87.6578 17.1655C85.0409 18.2179 82.0038 19.6264 79.0667 21.4271C74.6571 24.1321 69.2351 27.5173 64.6054 31.6348C60.1958 35.5523 58.5272 37.717 56.2223 40.8462C51.3085 47.5286 51.1405 50.2136 50.7964 52.1543C50.5002 53.839 50.5042 84.9663 50.5082 93.2174L54.9539 91.2006C54.9099 83.6619 54.7698 56.804 54.9659 53.4708C55.194 49.5854 55.8222 47.8728 58.7913 43.5352C61.7604 39.1976 63.7091 38.1252 67.0663 34.904C71.8961 30.2703 78.4225 26.1608 83.5804 23.2598C87.4698 21.071 90.859 19.6144 93.3519 18.6821C93.7201 18.1899 93.9562 17.8738 94.0202 17.7898L94.0242 17.7818Z" fill="white" fill-opacity="0.6"/>
<path fill-rule="evenodd" clip-rule="evenodd" d="M67.5851 46.2242C58.922 46.2242 58.6418 59.5771 67.8212 59.5771C77.0006 59.5771 76.7885 46.2242 67.5851 46.2242ZM67.7474 50.2257C64.1461 50.2257 64.026 55.7797 67.8434 55.7797C71.6608 55.7797 71.5768 50.2257 67.7474 50.2257Z" fill="white" fill-opacity="0.6"/>
<path fill-rule="evenodd" clip-rule="evenodd" d="M67.5851 65.4312C58.922 65.4312 58.6418 78.784 67.8212 78.784C77.0006 78.784 76.7925 65.4312 67.5851 65.4312ZM67.7474 69.4326C64.1461 69.4326 64.026 74.9867 67.8434 74.9867C71.6608 74.9867 71.5768 69.4326 67.7474 69.4326Z" fill="white" fill-opacity="0.6"/>
<path fill-rule="evenodd" clip-rule="evenodd" d="M84.2686 31.4748C86.4734 27.9295 91.5152 21.131 93.3559 18.6741C90.863 19.6064 87.4737 21.0629 83.5843 23.2517C78.4264 26.1528 71.9 30.2583 67.0703 34.896C66.1435 35.7852 65.3243 36.5107 64.5615 37.1863L64.5615 37.1863C62.561 38.9581 60.9476 40.387 58.7952 43.5272C55.8221 47.8648 55.1979 49.5814 54.9698 53.4628C54.7738 56.796 54.9138 83.6539 54.9578 91.1926L79.903 79.8645C79.903 79.8645 76.8778 75.971 76.6658 73.3061C76.1616 66.9838 76.1656 53.987 76.9699 48.485C77.7622 43.043 80.031 38.2893 84.2686 31.4788V31.4748ZM67.585 46.2242C58.9218 46.2242 58.6417 59.5771 67.8211 59.5771C77.0005 59.5771 76.7884 46.2242 67.585 46.2242ZM67.585 65.4312C58.9218 65.4312 58.6417 78.7841 67.8211 78.7841C77.0005 78.7841 76.7924 65.4312 67.585 65.4312Z" fill="white" fill-opacity="0.4"/>
<path d="M93.5239 98.4073C93.4678 98.4073 88.9142 98.4673 88.8982 98.4673C88.1499 98.4673 84.4085 98.1232 84.4005 98.1192C84.3765 98.1112 84.3005 98.0791 84.1964 98.0271C83.7763 97.815 82.5118 96.6066 82.1637 96.1584C81.6115 95.4462 81.0873 94.6019 80.6472 93.7135C80.343 93.0973 79.5868 90.8885 79.4547 90.2123C79.2506 89.1399 79.0746 87.7994 78.9345 86.2188C78.8945 85.7426 78.9945 84.8023 78.9945 84.8023L81.5555 83.5018L86.1692 81.405L83.064 77.4036C81.8916 75.883 80.7192 73.7262 80.6552 72.978C80.159 66.7677 80.203 54.047 80.9313 49.0492C81.9156 42.2867 83.7483 39.5297 86.0691 36.0404C86.5853 35.2641 87.1215 34.4599 87.6657 33.5795C90.2627 29.402 97.1652 20.2507 97.2372 20.1586L101.271 14.8167L94.6563 13.7923C94.4482 13.7603 89.4504 13 82.3478 13C75.2452 13 65.3736 13.7403 56.1142 17.2736C42.3051 22.5555 33.2058 38.2452 32.8257 38.9135L32.7696 39.0095L32.7216 39.1096C32.2895 39.9699 28.4841 47.6887 27.5557 53.2627C26.8835 57.2762 26.9435 82.0133 27.1076 102.061L27.1596 108.215L32.7656 105.67L53.9214 96.0624L59.5314 93.5135C60.0476 95.7703 60.5638 97.687 61.068 99.2076C61.3921 100.184 62.9167 103.309 63.3848 104.161C64.4732 106.146 65.6897 108.243 67.5183 110.132C68.2666 110.908 71.8479 113.365 72.9803 113.781C75.2332 114.609 78.8225 115.009 83.9524 115.009C83.9524 115.009 88.0939 114.897 88.8942 114.897C88.9502 114.897 93.5999 114.625 93.6759 114.621C95.7207 114.453 97.3052 112.769 97.3493 110.716L97.5213 102.493C97.5453 101.388 97.1092 100.324 96.3209 99.5517C95.5726 98.8194 94.5642 98.4113 93.5239 98.4113V98.4073ZM52.2648 92.4171L51.4645 92.7812V92.7372L50.5121 93.2134L31.105 102.029C31.001 89.452 30.8129 58.0205 31.4972 53.923C32.3535 48.7811 36.2949 40.9022 36.2949 40.9022C36.2949 40.9022 44.9061 25.8447 57.5427 21.0269C65.9818 17.8098 75.2572 17.0175 82.3478 17.0175C86.7774 17.0175 90.3427 17.3256 92.3274 17.5457C92.3514 17.5457 92.3714 17.5497 92.3954 17.5537C92.4875 17.5657 92.5795 17.5737 92.6635 17.5857C92.6996 17.5897 92.7356 17.5937 92.7716 17.5977C92.8116 17.6017 92.8556 17.6057 92.8916 17.6137C93.6319 17.7017 94.0441 17.7657 94.0441 17.7657C94.0441 17.7657 86.9935 27.1052 84.2685 31.4828C80.0309 38.2933 77.7621 43.047 76.9698 48.489C76.1695 53.995 76.1615 66.9878 76.6657 73.3101C76.8778 75.975 79.9029 79.8685 79.9029 79.8685L52.2608 92.4211L52.2648 92.4171ZM63.2528 91.8249L74.9531 86.5709C75.0811 88.0275 75.2652 89.6 75.5293 90.9645L64.8694 97.9471C64.2492 96.0664 63.6769 93.7335 63.2568 91.8208L63.2528 91.8249ZM70.3954 107.351C68.8708 105.774 67.8025 103.897 66.8901 102.233L77.0618 95.4902C77.602 96.5786 78.2583 97.651 79.0025 98.6113L70.3954 107.351ZM84.2685 111.008C84.1644 111.008 84.0564 111.008 83.9524 111.008C80.275 111.008 76.4456 110.792 74.3609 110.024L82.3998 101.604C82.6199 101.716 82.844 101.813 83.072 101.897C83.3842 102.009 83.7963 102.101 84.2725 102.173V111.008H84.2685ZM93.3478 110.632C93.3478 110.632 91.4911 110.784 88.8942 110.896V102.469L93.5199 102.409L93.3478 110.632Z" fill="white"/>
</svg>
