<svg width="128" height="128" viewBox="0 0 128 128" fill="none" xmlns="http://www.w3.org/2000/svg">
<path fill-rule="evenodd" clip-rule="evenodd" d="M97.4799 54.08V38.2L82.2799 23.16H70.7599V13.6H57.2799V23.2H45.7599L30.5599 38.24V54.12L26.7999 52.4L19.6399 55.44L16.4399 60.4V66.92L18.2799 71.36L22.5199 75.6L26.9599 77.44H34.4399L38.8799 75.6L43.2799 71.2L45.1199 66.76V44.48L48.1999 41.4362V56.68L48.9199 59.92L56.9599 85.16L56.9199 91.48L55.5199 94.2L53.9599 97.24L53.0799 102V107.64L55.3199 112.36L57.5599 114.32L61.6399 115.24H66.7599L71.9199 113.04L73.0399 111.92L74.8399 106.32V100.88L73.3999 96.12H89.3199V78.56H75.8399V81.08H72.5199L78.9999 60L79.7199 56.76V41.5116L82.7999 44.52V66.8L84.6399 71.24L89.0399 75.64L93.4799 77.48H100.96L105.4 75.64L109.64 71.4L111.48 66.96V60.44L108.28 55.48L99.9999 52L97.4799 54.08ZM62.1999 22.8399H65.7999C66.3199 22.8399 66.7599 22.3999 66.7599 21.8799V18.5199C66.7599 17.9999 66.3199 17.5599 65.7999 17.5599H62.1999C61.6799 17.5599 61.2399 17.9999 61.2399 18.5199V21.8799C61.2399 22.3999 61.6799 22.8399 62.1999 22.8399ZM101.68 56.7999L106.68 59.0799C107.16 59.3199 107.52 59.9199 107.56 60.4399V66.9599C107.56 67.4799 107.24 68.1999 106.88 68.5599L102.64 72.7999C102.28 73.1999 101.56 73.4799 101.04 73.4799H93.5599C93.0399 73.4799 92.3199 73.1599 91.9599 72.7999L87.5599 68.3999C87.1599 68.0399 86.8799 67.3199 86.8799 66.7999V43.7999C86.8799 43.2799 86.5599 42.5599 86.1999 42.1999L78.3599 34.4799C77.9999 34.1199 77.2799 33.8399 76.7599 33.8399H51.2399C50.7199 33.8399 49.9999 34.1199 49.6399 34.4799L41.7999 42.1999C41.4399 42.5599 41.1199 43.2799 41.1199 43.7999V66.7999C41.1199 67.3199 40.7999 68.0399 40.4399 68.3999L36.0399 72.7999C35.6799 73.1999 34.9599 73.4799 34.4399 73.4799H26.9599C26.4399 73.4799 25.7199 73.1599 25.3599 72.7999L21.1199 68.4399C20.7199 68.0799 20.4399 67.3599 20.4399 66.8399V60.3199C20.4399 59.7999 20.7999 59.1999 21.2799 58.9999L26.2799 56.7199C26.3599 56.6799 26.4399 56.6399 26.5199 56.6399H26.5999H26.7999H26.8399H26.8799C26.9199 56.6399 26.9599 56.6499 26.9999 56.6599C27.0399 56.6699 27.0799 56.6799 27.1199 56.6799C27.1599 56.6999 27.1999 56.7099 27.2399 56.7199C27.2799 56.7299 27.3199 56.7399 27.3599 56.7599C27.3829 56.7829 27.3927 56.7927 27.4045 56.7969C27.4132 56.7999 27.4229 56.7999 27.4399 56.7999C27.4599 56.8199 27.4899 56.8299 27.5199 56.8399C27.5499 56.8499 27.5799 56.8599 27.5999 56.8799C27.6199 56.8799 27.6299 56.8899 27.6399 56.8999C27.6499 56.9099 27.6599 56.9199 27.6799 56.9199C27.7599 56.9599 27.8399 57.0399 27.8799 57.0799L29.3999 58.5999C29.7599 58.9599 29.7599 59.5599 29.3999 59.9199L27.7599 61.5599C27.3599 61.9199 27.0799 62.6399 27.0799 63.1599V64.1999C27.0799 64.7199 27.3999 65.4399 27.7599 65.7999L28.1199 66.1599C28.4799 66.5599 29.1999 66.8399 29.7199 66.8399H31.7199C32.2399 66.8399 32.9599 66.5199 33.3199 66.1599L33.8399 65.6399C34.2399 65.2799 34.5199 64.5599 34.5199 64.0399V40.9999C34.5199 40.4799 34.8399 39.7599 35.1999 39.3999L46.8399 27.9199C47.1999 27.5599 47.9199 27.2799 48.4399 27.2799H79.3599C79.8799 27.2799 80.5999 27.5599 80.9599 27.9199L92.7199 39.4799C93.0799 39.8399 93.3999 40.5599 93.3999 41.0799V64.1199C93.3999 64.6399 93.7199 65.3599 94.0799 65.7199L94.6399 66.2399C94.9999 66.6399 95.7199 66.9199 96.2399 66.9199H98.2399C98.7599 66.9199 99.4799 66.5999 99.8399 66.2399L100.2 65.8799C100.6 65.5199 100.88 64.7999 100.88 64.2799V63.2399C100.88 62.7199 100.56 61.9999 100.2 61.6399L98.5599 59.9999C98.1999 59.6399 98.1999 59.0399 98.5599 58.6799L100.08 57.1599C100.16 57.0799 100.2 57.0399 100.28 56.9999C100.3 56.9999 100.31 56.9899 100.32 56.9799C100.33 56.9699 100.34 56.9599 100.36 56.9599C100.38 56.9399 100.41 56.9299 100.44 56.9199C100.47 56.9099 100.5 56.8999 100.52 56.8799C100.543 56.8569 100.553 56.8472 100.564 56.843C100.573 56.8399 100.583 56.8399 100.6 56.8399C100.68 56.7999 100.76 56.7599 100.84 56.7599C100.92 56.7199 101 56.7199 101.08 56.7199H101.12H101.16H101.36H101.44C101.48 56.7399 101.52 56.7499 101.56 56.7599C101.6 56.7699 101.64 56.7799 101.68 56.7999ZM70.8799 100.52C70.8799 99.466 70.3598 98.4987 69.8598 97.569C69.7716 97.4049 69.684 97.242 69.5999 97.0799C69.2799 96.48 68.97 95.87 68.66 95.26C68.35 94.65 68.04 94.04 67.7199 93.4399C67.2799 92.5999 66.9999 91.7199 66.9999 90.7599C66.9999 90.4306 67.0028 89.771 67.0062 88.9778V88.9765V88.9755C67.0156 86.7821 67.0293 83.568 66.9999 83.4799V83.3599C67.3599 83.1999 67.6799 82.9599 67.8399 82.6399L75.2799 58.4799C75.5199 58.0399 75.7599 57.2399 75.7599 56.7199V39.1199H52.2399V56.7199C52.2399 57.2399 52.4399 58.0399 52.7199 58.4799L60.1599 82.6399C60.3199 82.9199 60.6399 83.1999 60.9999 83.3599V83.4799V89.7999C60.9999 89.8773 61.0001 89.9544 61.0004 90.0314C61.003 91.0287 61.0056 91.9916 60.5599 92.9199C60.1594 93.7211 59.7448 94.5153 59.3309 95.3084C58.7529 96.4159 58.176 97.5211 57.6399 98.6399C57.1816 99.592 57.1894 100.544 57.1977 101.551C57.1988 101.686 57.1999 101.822 57.1999 101.96V107.12C57.2399 108 57.7199 108.6 58.2799 109.16C58.3881 109.268 58.4963 109.384 58.6062 109.501L58.6063 109.501C58.9436 109.861 59.2976 110.239 59.7199 110.48C60.3433 110.861 60.9966 110.852 61.6799 110.843C61.7859 110.841 61.8926 110.84 61.9999 110.84H66.8799C67.6799 110.84 68.3599 110.64 68.9199 110.08C69.0681 109.932 69.2163 109.788 69.3629 109.646C69.6517 109.366 69.9346 109.092 70.1999 108.8C70.9626 108.003 70.9441 106.995 70.9256 105.985C70.9228 105.83 70.9199 105.675 70.9199 105.52C70.8799 104.16 70.8799 100.8 70.8799 100.52ZM76.5999 88.1599H79.9199V82.5999H85.3599V92.1599H71.5999L71.4799 91.9199V85.1199H76.5999V88.1599Z" fill="white"/>
<path d="M71.8799 100.52C71.8799 99.28 70.16 98.1599 69.5999 97.0799C68.9599 95.8799 68.64 94.64 68 93.44C67.56 92.6 67.5 91.7199 67.5 90.76C67.5 89.52 67.5 82.9999 67.5 82.9999C67.5 82.9999 61.5655 82.9916 60.9599 82.9998C60.3544 83.008 60.9599 88.4 60.9599 89.8C60.9599 90.88 61 91.92 60.52 92.92C59.56 94.84 58.5199 96.72 57.5999 98.64C57.0799 99.72 57.1599 100.8 57.1599 101.96C57.1599 103.36 57.1599 106.8 57.1599 107.12C57.1999 108 57.68 108.6 58.24 109.16C58.68 109.6 59.1199 110.16 59.6799 110.48C60.3999 110.92 61.1599 110.84 61.9599 110.84C63.5999 110.84 65.2 110.84 66.84 110.84C67.64 110.84 68.3199 110.64 68.8799 110.08C69.3199 109.64 69.7599 109.24 70.1599 108.8C71.0399 107.88 71.8799 106.68 71.8799 105.52C71.8799 104.16 71.8799 100.8 71.8799 100.52Z" fill="white" fill-opacity="0.14"/>
<path fill-rule="evenodd" clip-rule="evenodd" d="M85.36 92.16V82.6H79.92V88.16H76.6V85.12H71.48V91.92L71.6 92.16H85.36Z" fill="white" fill-opacity="0.14"/>
<path d="M66.9999 83.0001V72.4201C66.9999 71.9001 66.5599 71.4601 66.0399 71.5001H61.9199C61.3999 71.5001 60.9599 71.9001 60.9599 72.4201C60.9599 72.4201 60.9199 83.0001 60.9599 83.0001C60.9999 83.0001 66.9999 83.0001 66.9999 83.0001Z" fill="white" fill-opacity="0.46"/>
</svg>
