<svg width="128" height="128" viewBox="0 0 128 128" fill="none" xmlns="http://www.w3.org/2000/svg">
<path fill-rule="evenodd" clip-rule="evenodd" d="M109.8 90.24C109.68 88.88 109.4 87.64 108.76 85.92L108.36 84.92L107.52 84.24C104.8 82.08 101.04 79.84 97.16 77.68L97.68 76.72C99.96 72.4 101.84 67.64 102.84 65.12C103.08 64.48 103.32 63.92 103.44 63.64L103.52 63.48L103.56 63.32C103.68 63 103.8 62.6 103.96 62.16C104.96 59.36 106.84 54.16 108 44.68L108.04 44.32V43.96C108 43.36 108.04 42.68 108.04 41.92C108.12 37.44 108.28 30.64 99.44 22.12C95.12 18.04 86.04 14.44 78.72 12.88C78.2 12.76 64.52 10.08 64.52 10.08C64.52 10.08 74.4 17.96 75.08 18.48L75.2 18.56C77.24 20.04 82.56 25.12 84.92 28.88C85.04 29.12 85.16 29.4 85.32 29.64C86.96 32.84 88.04 34.96 87.76 40.76C87.52 41.84 87.28 43 87.08 44.24C86.4 47.92 85.52 52.44 83.76 56.88C83.04 58.44 82.32 59.92 81.64 61.36C80.44 63.84 79.32 66.16 78.32 68.6L78 69.36C76.12 68.8 74.28 68.32 72.68 68.08L71.52 67.88L70.44 68.36C69.68 68.68 69.32 68.88 68.92 69.04C68.68 69.16 68.44 69.28 68.04 69.44L66.36 70.2L65.84 71.96C65.24 74.12 64.64 76.32 64.24 78.12C63.96 76.32 63.48 74.44 62.68 71.6L62.16 69.84L60.48 69.08C60.08 68.92 59.84 68.8 59.6 68.68C59.2 68.48 58.84 68.32 58.08 68L56.8 67.44L55.44 67.8C54 68.2 52.4 68.68 50.68 69.28L50.24 68.24C48.92 64.96 47.12 60.88 44.72 55.68C43.16 51.16 42.24 46.68 41.48 43.12C41.28 42.12 41.08 41.12 40.84 40.24C40.72 34.08 41.88 31.52 43.52 28.6C45.84 24.84 51.28 20.08 53.08 18.76C53.92 18.16 63.76 10.08 63.76 10.08C63.76 10.08 49.88 12.48 49.16 12.68C42.16 14.28 33.72 17.68 29.44 21.68C21.8 27.92 20.28 37.24 19.8 40.36L19.72 40.92L19.8 41.48C20.88 50.08 23.64 57.8 25.12 61.96C25.4 62.76 25.64 63.44 25.8 63.96L25.84 64.12L25.92 64.28C26.48 65.56 28 69.36 30.6 75.96L31.28 77.68C27.44 79.88 24.08 82.28 21.08 84.48L20.12 85.16L19.68 86.28C19.04 87.96 18.72 89.24 18.64 90.6L18.52 92.24L20.12 94.12C21.48 95.76 22.56 97.04 24.32 98.56C25.16 99.4 26.28 99.88 27.52 99.88C28.04 99.88 28.48 99.8 28.8 99.72C28.96 99.68 29.08 99.68 29.12 99.68H29.16L30.88 99.88L32.2 98.76C33.28 97.84 35.56 96.48 38 95.08L38.4 95.76C39.72 97.92 40.84 99.68 41.72 101.04L40.44 102.08L40.36 103.88C40.28 105.48 40.36 106.12 40.56 106.92C40.6 107.04 40.6 107.12 40.6 107.44L40.68 108.76L41.48 109.76C43.08 111.76 44.48 113.08 46.52 114.52L47.96 115.56L49.68 115.16C50.32 115 50.88 115 51.6 115C52.48 115 53.6 115 54.92 114.68L55.4 114.56L55.84 114.32C56.76 113.84 57.52 113.2 58.32 112.56C58.8 112.16 59.24 111.8 59.68 111.52L60.96 110.64L61.32 109.12C61.64 107.84 62.16 102.04 62.08 100.76L61.92 98.48L59.88 97.44C58.28 96.64 57.24 96.28 56.28 95.92C56.24 95.92 56.2 95.88 56.16 95.88C55.64 95 54.92 93.84 54 92.36C53.12 90.92 52.16 89.4 51.64 88.44L51.48 88.16C54.48 86.8 56.44 85.96 59.48 85.04L60.36 84.8L61.04 84.2C61.2 84.08 61.32 83.96 61.44 83.84C62.04 83.28 62.44 82.96 63.28 82L63.56 81.68L63.52 81.96L64.76 83.36C65.6 84.32 66 84.68 66.6 85.2C66.72 85.32 66.84 85.4 67 85.56L67.72 86.2L68.68 86.44C71.04 87.08 73.52 87.72 76.76 88.8C75.6 90.68 73.24 94.6 71.24 97.2C70.92 97.32 70.64 97.48 70.4 97.6C70.12 97.76 69.84 97.88 69.32 98.08L66.88 98.96L66.72 101.56C66.72 101.76 66.4 106.76 66.84 108.56L66.92 108.88L67.04 109.2C67.72 110.8 68.92 111.44 72.12 113.08C72.8 113.44 73.88 114 74.2 114.2L75.4 115.16L77.04 115C78.56 114.88 79.72 114.56 80.64 114.32C81.16 114.16 81.64 114.04 81.96 114.04L83.96 113.84L85 112.16C85.24 111.76 85.48 111.44 85.68 111.12C86.24 110.32 86.72 109.52 87.44 108.04L88.32 106.16L87.28 104.36C86.96 103.84 86.64 103.32 86.28 102.84C87.32 100.8 88.52 98.56 90.04 96.2L90.6 95.36C91.16 95.68 91.76 96.04 92.32 96.36C94.16 97.44 95.88 98.44 97.28 99.24L98.44 99.88L99.76 99.72H99.8C99.84 99.72 99.96 99.76 100.12 99.76C100.44 99.84 100.88 99.92 101.4 99.92C102.64 99.92 103.8 99.44 104.6 98.56C105.96 97.36 106.8 96.12 107.56 95.04C108 94.4 108.4 93.8 108.96 93.16L110 91.92L109.8 90.24ZM29.52 62.68C28.44 59.44 24.92 50.8 23.68 40.96C24.32 36.88 25.92 29.56 32 24.68C36.12 20.8 45.2 16.44 51.84 15.4C51.84 15.64 43.44 20.92 39.96 26.56C37.92 30.16 36.52 33.48 36.72 40.72C37.68 44.88 38.68 50.84 40.84 57.16C42.8 61.44 44.84 66 46.36 69.76C41.68 70.88 39.32 72.04 34.16 74.44C31.96 68.68 30.16 64.16 29.52 62.68ZM53.36 99.08C55.12 99.8 55.96 99.92 58.08 101C58.12 101.84 57.68 107.24 57.44 108.2C56.12 109.08 55 110.24 53.96 110.76C52.16 111.2 50.88 110.76 48.76 111.24C47 110 45.88 108.92 44.52 107.24C44.44 105.56 44.2 106.32 44.28 104.04C45.64 102.92 45.64 102.88 46.64 101.4C45.56 99.76 44.04 97.44 41.72 93.68C43.36 92.72 46.24 91.2 48.16 90.4C49.52 92.76 52.76 97.8 53.36 99.08ZM58.36 81.16C53.32 82.68 51.04 84 43.88 87.2C39.08 89.84 32.2 93.44 29.52 95.68C28.04 95.52 27.32 96.16 27 95.64C25.2 94.12 24.24 92.88 22.52 90.84C22.6 90.04 22.72 89.2 23.32 87.64C28.04 84.2 33.28 80.56 39.6 77.84C44.76 75.56 51.76 72.88 56.36 71.64C57.52 72.16 57.68 72.24 58.72 72.72C59.52 75.56 59.96 77.4 60.24 79.24C59.36 80.32 59.16 80.44 58.36 81.16ZM87.32 58.48C89.92 51.96 90.68 45.48 91.64 41.32C92.08 33.6 90.32 30.88 88.36 26.92C84.88 21.24 76.48 15.96 76.48 15.76C83.12 16.8 92.56 21.16 96.68 25.04C105.68 33.72 103.8 39.56 104.04 44.16C102.72 54.8 100.52 59.64 99.76 62.04C99.12 63.52 96.92 69.56 94.12 74.84C88.96 72.44 86.64 71.28 81.92 70.16C83.44 66.4 85.36 62.76 87.32 58.48ZM81.56 103.04C81.64 103.52 83 105.08 83.72 106.32C82.92 108.08 82.44 108.52 81.52 110C80.08 110.12 78.76 110.8 76.6 111C75.8 110.32 70.88 108.08 70.64 107.56C70.4 106.64 70.6 102.6 70.64 101.76C72.24 101.16 72.32 100.88 73.56 100.56C75.76 97.92 78.56 93.36 80.16 90.72C82.08 91.48 84.92 93 86.6 94C84.4 97.36 82.84 100.56 81.56 103.04ZM101.64 95.68C101.32 96.2 100.64 95.52 99.12 95.72C95.36 93.56 89.24 89.92 84.44 87.28C77.48 84.72 73.44 83.6 69.6 82.56C68.8 81.8 68.6 81.72 67.68 80.68C67.96 78.88 68.72 76 69.52 73.16C70.56 72.68 70.72 72.6 71.88 72.08C76.56 72.8 83.68 75.6 88.84 77.88C94.84 81 101.12 84.36 104.92 87.4C105.52 88.96 105.68 89.8 105.72 90.6C104.08 92.6 103.48 94.12 101.64 95.68Z" fill="white"/>
<path fill-rule="evenodd" clip-rule="evenodd" d="M48.1602 90.36C49.5202 92.76 52.8002 97.8 53.3602 99.08C55.1202 99.8 55.9602 99.92 58.0802 101C58.1202 101.84 57.6802 107.24 57.4402 108.2C56.1202 109.08 55.0002 110.24 53.9602 110.76C52.1602 111.2 50.8802 110.76 48.7602 111.24C47.0002 110 45.8802 108.92 44.5202 107.24C44.4402 105.56 44.2002 106.32 44.2802 104.04C45.6402 102.92 45.6402 102.88 46.6402 101.4C45.5602 99.76 44.0402 97.44 41.7202 93.68C43.3602 92.68 46.2402 91.16 48.1602 90.36Z" fill="white" fill-opacity="0.6"/>
<path fill-rule="evenodd" clip-rule="evenodd" d="M80.16 90.72C78.56 93.36 75.76 97.92 73.56 100.56C72.32 100.88 72.2801 101.16 70.6401 101.76C70.6001 102.6 70.4001 106.64 70.6401 107.56C70.8801 108.08 75.8 110.36 76.6 111C78.72 110.8 80.08 110.16 81.52 110C82.44 108.52 82.88 108.08 83.72 106.32C83 105.08 81.68 103.52 81.56 103.04C82.84 100.56 84.36 97.36 86.6 93.96C84.96 93 82.12 91.48 80.16 90.72Z" fill="white" fill-opacity="0.6"/>
</svg>
