<svg width="128" height="128" viewBox="0 0 128 128" fill="none" xmlns="http://www.w3.org/2000/svg">
<path fill-rule="evenodd" clip-rule="evenodd" d="M48.3601 31.6C48.3601 31.6 39.8401 24.4 37.5201 22.76C36.8401 22.28 36.4001 21.4 36.3601 21.24C36.0001 20.04 35.8401 18.44 36.1601 17.84C36.1601 17.84 36.3601 17.6 37.3601 17.6C37.9601 17.6 39.2001 17.76 39.2001 17.76C40.0001 17.88 48.4001 25.2 48.4801 25.56C48.6001 26.04 48.3601 31.6 48.3601 31.6ZM103.4 25.68C102.52 27.2 101.6 28.72 100.68 29.88C100.261 29.6383 99.7903 29.3642 99.3042 29.0811L99.303 29.0804C98.5826 28.661 97.8286 28.222 97.1601 27.84C98.8801 25.32 100.12 23.52 100.12 23.52L103.4 25.68ZM106.92 27.9599C106.519 28.5944 106.119 29.2777 105.735 29.9312L105.735 29.9316L105.735 29.9322C105.2 30.8439 104.699 31.6976 104.28 32.2799C104.579 32.4889 105 32.7927 105.469 33.1308L105.469 33.1312C106.257 33.699 107.178 34.3637 107.88 34.8399C109.6 32.3199 110.8 30.5199 110.8 30.5199L106.92 27.9599ZM98.4424 40.2395L98.4421 40.2393L98.4416 40.239L98.4415 40.239C96.3922 38.8112 94.0495 37.1791 91.7201 35.68L91.7947 35.5722L92.0085 35.2639C92.6404 34.3533 93.2903 33.4166 93.8801 32.48C98.3601 35.64 101.44 37.64 104.56 39.64C103.84 40.76 103.08 41.88 102.36 42.92C101.293 42.2258 99.9474 41.288 98.4432 40.2401L98.4425 40.2396L98.4424 40.2395ZM16.9638 100.302C16.9524 100.25 16.9425 100.205 16.92 100.16C16.92 100.12 16.88 100.08 16.88 100.12C16.84 100 16.8 99.88 16.8 99.76C17.6519 99.76 18.56 99.7788 19.4972 99.7981C20.4962 99.8187 21.5281 99.84 22.5601 99.84C26.1201 99.84 29.6801 99.64 31.9201 98.68C37.5201 96.28 41.84 93.8 46.5601 90.4C47.9904 89.2021 49.0531 88.2599 49.9483 87.4663C51.0558 86.4844 51.9067 85.73 52.8801 85C55.2001 83 61 76.72 66 70.92C69.4001 67 73.84 61.48 78.36 54.64C78.7902 54.9183 80.1325 55.8368 81.7595 56.9501L81.7616 56.9515L81.763 56.9524L81.7632 56.9525C82.7073 57.5986 83.7472 58.3101 84.76 59L84.4838 59.3298L83.9208 60.0019C82.7466 61.4032 81.5463 62.8356 80.3201 64.32L79.991 64.7143C75.6551 69.91 71.2124 75.2336 66.96 79.72C66.882 79.8092 66.596 80.1033 66.2049 80.5054L66.2046 80.5056L66.2046 80.5057C65.1918 81.5469 63.4748 83.3121 62.8401 84.12C62.3201 84.72 58.76 88.44 58.76 88.44C56.32 90.72 56 91 53.76 92.76C47.56 97.24 41.7201 101.44 33.7201 103.88C30.4801 104.48 28.2401 104.76 26.1201 104.76C23.7601 104.76 21.6 104.44 18.88 103.88L18.5601 103.8C18.5001 103.7 18.4401 103.59 18.38 103.48C18.32 103.37 18.26 103.26 18.2 103.16C17.96 102.72 17.7601 102.32 17.5601 101.88C17.5601 101.821 17.5386 101.784 17.5114 101.737L17.5114 101.737L17.5112 101.737C17.5013 101.72 17.4907 101.701 17.48 101.68C17.44 101.56 17.4001 101.48 17.3601 101.4L17.24 101.16C17.24 101.08 17.2001 101 17.1601 100.92C17.1601 100.8 17.1201 100.72 17.0801 100.64L17.08 100.64C17.0601 100.6 17.0501 100.57 17.0401 100.54C17.0301 100.51 17.0201 100.48 17 100.44C16.9825 100.387 16.9727 100.342 16.9638 100.302ZM88.36 40.6C87.44 41.92 86.84 42.8 86.84 42.8C87.3022 43.1008 87.8573 43.4635 88.4745 43.8668C91.2228 45.6627 95.2049 48.2648 97.72 49.8C97.76 49.76 97.8 49.68 97.84 49.6C97.84 49.6 98.28 48.92 99.04 47.84C93.502 44.4647 91.3734 42.8613 89.5532 41.4902L89.553 41.49L89.552 41.4893L89.5503 41.488C89.1497 41.1862 88.764 40.8957 88.36 40.6ZM31.5201 33.24C32.4401 34 32.7201 34.16 33.6801 34.36C38.4001 35.36 43.4401 36.48 48.4001 37.92V32.88L47.4401 32.36C46.5201 31.96 38.9201 28.52 38.3601 28.24C38.2343 28.1771 38.0897 28.1024 37.9324 28.021L37.9324 28.021L37.9324 28.021C37.0893 27.585 35.8806 26.96 35.2401 26.96C34.0401 26.92 27.9601 26.92 27.5201 26.92C27.4944 27.4069 27.4196 28.3536 27.3691 28.992C27.3407 29.3501 27.3201 29.6113 27.3201 29.64C27.3601 29.76 30.4401 32.36 31.5201 33.24ZM60.36 40.7199C60.28 40.8399 58.12 42.6399 57.72 42.9199C57.48 43.0799 57.12 43.1199 56.6 43.1599C56.472 43.1599 55.7682 43.1471 54.9235 43.1318L54.9232 43.1318H54.9232L54.9229 43.1318C53.6558 43.1087 52.072 43.0799 51.64 43.0799C51.6076 39.4492 51.6803 35.7397 51.7516 32.1005V32.1003L51.7516 32.0998C51.7683 31.2487 51.7849 30.4014 51.8 29.5599C52.4279 29.6418 53.0744 29.7051 53.7904 29.7752L53.7904 29.7752L53.7905 29.7752C54.1236 29.8078 54.4717 29.8418 54.84 29.8799C54.9394 29.8894 55.0405 29.8989 55.1429 29.9085C55.9066 29.98 56.7489 30.0589 57.56 30.1999C57.96 30.2799 57.96 30.2799 58.36 30.6799C58.36 30.6799 59.52 31.9599 60.16 32.8399C60.6 33.4799 60.4 40.5999 60.36 40.7199ZM27.84 44.72C27.88 44.72 39.76 43.84 39.76 43.84C40.5356 43.7846 41.7762 43.7053 43.0802 43.6218L43.0803 43.6218C45.5427 43.4643 48.2308 43.2923 48.44 43.24L48.4 39.72C48.4 39.72 32.2001 38.64 31.96 38.64H31.76C31.68 38.68 27.2801 42.12 27.1601 42.88C27.1313 43.0813 27.4539 43.82 27.6673 44.3086L27.6674 44.3086C27.7508 44.4997 27.8176 44.6525 27.84 44.72ZM78.7201 36.52C73.8401 36.72 69.0401 37.4 64.2001 38.16C64.2001 37.36 64.2001 36.56 64.2401 35.72C64.2401 35.5504 64.2181 35.3222 64.194 35.073C64.1387 34.4993 64.0727 33.8146 64.2401 33.48C64.474 33.1124 65.8246 32.9681 66.6126 32.884C66.7679 32.8674 66.9013 32.8531 67.0001 32.84C68.1601 32.64 69.3201 32.48 70.4801 32.36C74.8801 31.84 79.3601 31.6 83.8001 31.6C85.9201 31.6 88.0401 31.64 90.1601 31.76C89.8601 32.22 89.5601 32.67 89.2601 33.12C88.9601 33.57 88.6601 34.02 88.3601 34.48C88.2201 34.7 88.0801 34.91 87.9401 35.12C87.8001 35.33 87.6601 35.54 87.5201 35.76C87.511 35.7769 87.5022 35.7932 87.4936 35.8091C87.2394 36.2825 87.2193 36.32 86.6001 36.32C85.5479 36.3519 84.4957 36.371 83.4461 36.3902C81.8621 36.419 80.2838 36.4478 78.7201 36.52Z" fill="white" fill-opacity="0.14"/>
<path fill-rule="evenodd" clip-rule="evenodd" d="M99.0399 18.12L116.4 29.56L101 52C102.12 52.72 107.84 56.52 107.84 56.52L99.9199 68.76C99.9199 68.76 94.2799 65.08 93.1599 64.36C93.1599 64.36 86.0799 73.44 82.7999 77.16C80.8799 79.28 78.9599 81.52 76.7599 84.16C76.7599 84.16 72.7599 88.28 70.2799 90.88C67.8799 93.44 65.3599 96.08 63.8799 97.56L63.2799 98.16C56.2799 104.92 49.0399 111.88 36.1999 113.96C36.1999 113.96 31.1599 114.12 29.7199 114.12C27.9999 114.12 25.6399 113.84 25.6399 113.84C20.5944 112.471 17.8818 109.649 16.7916 108.515C16.7669 108.489 16.743 108.464 16.7199 108.44L16.5999 108.28C15.2799 106.88 13.0799 102.72 12.7199 100.52L11.9199 95.8L16.7199 95.88C16.9875 95.88 17.8144 95.894 18.7767 95.9103C20.1163 95.9329 21.7183 95.96 22.4399 95.96C26.3599 95.96 28.9599 95.68 30.2399 95.12C35.4399 92.88 39.5599 90.56 43.9999 87.36C44.1752 87.2073 44.4041 87.0075 44.6709 86.7745C46.2915 85.3594 49.3126 82.7213 50.2399 82C52.3599 80.16 57.8399 74.24 62.8799 68.4C67.2799 63.36 71.3199 58 74.9599 52.52L74.9999 52.44C74.0399 51.8 68.8399 48.24 68.8399 48.24C68.8399 48.24 73.1599 42 73.7999 41.08C71.3599 41.32 68.7199 41.68 64.7199 42.32L63.3599 42.52C62.7599 43.4 61.4399 45.24 59.7599 46.48L58.7199 47.24L38.7999 48.12C34.3199 48.44 24.8799 49.08 24.8799 49.08L22.3999 41.88C22.3999 41.88 26.7199 37.76 28.5199 36.24C26.7999 34.84 22.9599 31.32 22.9599 31.32L23.3599 23.04C23.3599 23.04 31.5199 23.08 32.0399 23.08H32.5999C32.1599 21.84 31.9999 20.08 32.0799 17.84L32.2399 14.04L40.5999 13.88L52.3999 24L52.4399 25.64V25.72C52.9659 25.7951 53.4605 25.8389 53.9335 25.8808C54.216 25.9058 54.4907 25.9301 54.7599 25.96C56.0399 26.08 59.8799 26.68 59.8799 26.68C59.8799 26.68 62.1999 29.04 62.7599 29.76C62.7599 29.76 76.5599 27.76 83.9599 27.76C86.1199 27.76 92.1999 28.04 92.1999 28.04L99.0399 18.12ZM37.5199 22.92C39.8399 24.56 48.3599 31.76 48.3599 31.76C48.3599 31.76 48.5999 26.2 48.4799 25.72C48.3999 25.36 39.9999 18.04 39.1999 17.92C39.1999 17.92 37.9599 17.76 37.3599 17.76C36.3599 17.76 36.1599 18 36.1599 18C35.8399 18.6 35.9999 20.2 36.3599 21.4C36.3999 21.56 36.8399 22.44 37.5199 22.92ZM97.8399 49.76C97.7999 49.84 97.7599 49.92 97.7199 49.96C95.0603 48.3915 90.8602 45.6022 88.1423 43.7973L88.1413 43.7967L88.135 43.7924L88.1279 43.7877C87.6631 43.4791 87.2421 43.1995 86.8799 42.96C86.9599 42.84 100.16 23.64 100.16 23.64L110.84 30.68C110.8 30.72 97.8399 49.76 97.8399 49.76ZM74.5199 47.16L98.8799 63.2C98.8799 63.2 100.24 61 100.96 59.8C101.227 59.3622 101.51 58.9245 101.798 58.4777L101.798 58.4772C101.984 58.1893 102.172 57.8977 102.36 57.6L78.4399 41.44C78.0399 42.04 75.3999 45.92 74.5199 47.16ZM84.7999 59.04C84.4799 58.8 84.1199 58.56 83.7999 58.36C83.7999 58.36 83.7599 58.36 83.7599 58.32C83.5999 58.22 83.4399 58.11 83.2799 58C83.1199 57.89 82.9599 57.78 82.7999 57.68C81.4399 56.76 80.1599 55.88 79.3199 55.28H79.2799C78.9999 55.08 78.7599 54.92 78.5599 54.8C78.5599 54.8 78.5199 54.8 78.5199 54.76C78.4999 54.74 78.4699 54.72 78.4399 54.7C78.4099 54.68 78.3799 54.66 78.3599 54.64C73.8399 61.48 69.3999 67 65.9999 70.92C60.9999 76.72 55.1999 83 52.8799 85C51.9066 85.73 51.0556 86.4844 49.9481 87.4663L49.9478 87.4665C49.0528 88.2601 47.9901 89.2022 46.5599 90.4C41.8399 93.8 37.5199 96.28 31.9199 98.68C29.6799 99.64 26.1199 99.84 22.5599 99.84C21.528 99.84 20.496 99.8187 19.497 99.798C18.5599 99.7787 17.6518 99.76 16.7999 99.76C16.7999 99.88 16.8399 100 16.8799 100.12C16.8799 100.137 16.8868 100.153 16.8948 100.173C16.9062 100.2 16.9199 100.233 16.9199 100.28C16.9329 100.319 16.9459 100.359 16.9592 100.4L16.9592 100.4C17.028 100.612 17.1059 100.852 17.2399 101.12C17.2399 101.14 17.2499 101.16 17.2599 101.18C17.2699 101.2 17.2799 101.22 17.2799 101.24L17.3999 101.48V101.52C17.4399 101.6 17.4699 101.67 17.4999 101.74C17.5299 101.81 17.5599 101.88 17.5999 101.96C17.6399 102.06 17.6899 102.16 17.7398 102.26L17.7399 102.26C17.7899 102.36 17.8399 102.46 17.8799 102.56C17.8799 102.58 17.8899 102.59 17.8999 102.6C17.9099 102.61 17.9199 102.62 17.9199 102.64C17.9799 102.74 18.0299 102.84 18.0799 102.94C18.1299 103.04 18.1799 103.14 18.2399 103.24C18.7599 104.2 19.3199 105.08 19.6399 105.44C19.7101 105.51 19.7901 105.593 19.8807 105.687C20.8224 106.665 22.9024 108.825 26.8799 109.92C27.5199 110 28.6399 110.04 29.8799 110.04C31.2446 110.04 32.7726 110.01 33.9664 109.987H33.9669L33.9676 109.987C34.7328 109.972 35.3606 109.96 35.7199 109.96C47.2299 108.106 53.8542 101.777 60.5265 95.4012L60.5312 95.3968L60.5358 95.3923C60.7703 95.1682 61.005 94.944 61.2399 94.72C62.7724 93.1875 65.4833 90.328 68.0275 87.6444L68.0279 87.644C70.5969 84.9342 72.9959 82.4038 73.8399 81.6C76.0732 78.8754 78.0626 76.6274 79.9753 74.4661L79.9754 74.4659C83.2014 70.8207 86.209 67.4222 89.7999 62.4C89.2799 62.08 87.1199 60.64 84.7999 59.04ZM33.6799 34.52C32.7199 34.32 32.4399 34.16 31.5199 33.4C30.4399 32.52 27.3599 29.92 27.3199 29.8C27.3199 29.7713 27.3406 29.5101 27.3689 29.152C27.4194 28.5136 27.4943 27.5669 27.5199 27.08C27.9599 27.08 34.0399 27.08 35.2399 27.12C35.8804 27.12 37.0891 27.745 37.9322 28.181L37.9322 28.181L37.9323 28.181L37.9323 28.181C38.0896 28.2624 38.2341 28.3371 38.3599 28.4C38.9199 28.68 46.5199 32.12 47.4399 32.52L48.3999 33.04V38.08C43.4399 36.64 38.3999 35.52 33.6799 34.52ZM57.7199 43.0799C58.1199 42.7999 60.2799 40.9999 60.3599 40.8799C60.3999 40.7599 60.5999 33.6399 60.1599 32.9999C59.5199 32.1199 58.3599 30.8399 58.3599 30.8399C57.9599 30.4399 57.9599 30.4399 57.5599 30.3599C56.7487 30.2189 55.9065 30.14 55.1428 30.0685C55.0403 30.0589 54.9393 30.0494 54.8399 30.0399C54.4716 30.0018 54.1234 29.9678 53.7903 29.9352L53.7903 29.9352L53.7902 29.9352C53.0742 29.8651 52.4277 29.8018 51.7999 29.7199C51.7847 30.5615 51.7681 31.4087 51.7514 32.2598L51.7514 32.2603V32.2605V32.2606C51.6801 35.8998 51.6075 39.6093 51.6399 43.2399C52.0718 43.2399 53.6551 43.2687 54.9221 43.2918L54.9228 43.2918L54.923 43.2918H54.9231L54.9234 43.2918C55.768 43.3071 56.4719 43.3199 56.5999 43.3199C57.1199 43.2799 57.4799 43.2399 57.7199 43.0799ZM39.7599 44C39.7599 44 27.8799 44.88 27.8399 44.88C27.8174 44.8126 27.7507 44.6597 27.6672 44.4687L27.6672 44.4687L27.6672 44.4686C27.4538 43.98 27.1311 43.2413 27.1599 43.04C27.2799 42.28 31.6799 38.84 31.7599 38.8H31.9599C32.1999 38.8 48.3999 39.88 48.3999 39.88L48.4399 43.4C48.2307 43.4523 45.5425 43.6243 43.0802 43.7818L43.0801 43.7818C41.7761 43.8653 40.5354 43.9446 39.7599 44ZM64.1999 38.32C69.0399 37.56 73.8399 36.88 78.7199 36.68C80.2837 36.6078 81.8619 36.579 83.4459 36.5502H83.446C84.4956 36.531 85.5478 36.5119 86.5999 36.48C87.2191 36.48 87.2393 36.4425 87.4935 35.9691L87.5199 35.92C87.6599 35.7 87.7999 35.49 87.9399 35.28C88.0799 35.07 88.2199 34.86 88.3599 34.64C88.6595 34.1806 88.9591 33.7312 89.2587 33.2818L89.2599 33.28C89.5599 32.83 89.8599 32.38 90.1599 31.92C88.0399 31.8 85.9199 31.76 83.7999 31.76C79.3599 31.76 74.8799 32 70.4799 32.52C69.3199 32.64 68.1599 32.8 66.9999 33C66.9012 33.0131 66.7678 33.0274 66.6127 33.044L66.6125 33.044C65.8244 33.1282 64.4738 33.2724 64.2399 33.64C64.0726 33.9746 64.1386 34.6593 64.1939 35.2331L64.1939 35.2332C64.2179 35.4823 64.2399 35.7105 64.2399 35.88C64.1999 36.72 64.1999 37.52 64.1999 38.32Z" fill="white"/>
<path d="M104.28 32.44C105 31.48 105.96 29.6801 106.92 28.1201L103.4 25.8C102.52 27.32 101.56 28.84 100.68 30C99.6799 29.44 98.2799 28.6401 97.1599 27.9201C96.1999 29.3201 95.0799 30.96 93.9199 32.6C98.3599 35.76 101.44 37.8 104.6 39.76C105.76 38.08 106.88 36.4001 107.88 34.9201C106.72 34.2001 105.08 33 104.28 32.44Z" fill="white" fill-opacity="0.46"/>
<path d="M88.3601 40.76C90.6401 42.4 92.2801 43.88 99.0401 48.04C99.8801 46.8 101.08 45.04 102.4 43.12C99.8801 41.48 95.8001 38.48 91.7601 35.88C90.4401 37.72 89.2401 39.44 88.3601 40.76Z" fill="white" fill-opacity="0.46"/>
</svg>
