<svg width="128" height="128" viewBox="0 0 128 128" fill="none" xmlns="http://www.w3.org/2000/svg">
<path d="M69.6 89.2V80.7095C69.6 80.3096 68.6966 79.9712 67.6291 80.0019H59.1708C58.1033 80.0019 57.2 80.3096 57.2 80.7095V89.2C57.2821 89.2 69.6 89.2 69.6 89.2Z" fill="white" fill-opacity="0.13"/>
<path d="M69.6 98.4V89.9094C69.6 89.5095 68.6966 89.1711 67.6291 89.2019H59.1708C58.1033 89.2019 57.2 89.5095 57.2 89.9094V98.4C57.2821 98.4 69.6 98.4 69.6 98.4Z" fill="white" fill-opacity="0.13"/>
<path fill-rule="evenodd" clip-rule="evenodd" d="M93.6001 27.2H31.6001V68H93.6001V27.2ZM73.6001 38H51.2001V56.7999H73.6001V38Z" fill="white" fill-opacity="0.14"/>
<path fill-rule="evenodd" clip-rule="evenodd" d="M92.24 71.12H71.24V116.96L54 117V71.12H32.7999L28.4799 66.84V59.04L15.2 48.24L28.52 37.4V28.72L32.76 24.48H51.7999L62.24 11L73.5999 24.48H92.3999L96.6799 28.84V37.6L109.96 48.2L96.6799 58.92V67.04L92.24 71.12ZM57.24 24.12C58.8 22.2 60.92 19.52 62.4 17.48C63.2503 18.4782 64.1689 19.5874 65.0651 20.6695C66.1082 21.929 67.1209 23.1518 67.96 24.12H57.24ZM62.5205 113.1L62.5148 113.1C60.9002 113.11 59.3037 113.12 58 113.12V102.04H67.24V113.08C65.8472 113.08 64.1794 113.09 62.5296 113.1L62.5275 113.1H62.5257H62.5244H62.5232H62.5223H62.5215H62.521H62.5205ZM23.6847 49.9531L23.6858 49.954C25.0044 51.0088 26.2933 52.0399 28.24 53.6399V42.8399C26.5667 44.2692 24.1947 46.1845 22.3683 47.6593L22.3661 47.6611L22.3574 47.6681C22.0921 47.8823 21.8383 48.0872 21.6 48.2799C22.3595 48.8929 23.0258 49.426 23.6847 49.9531ZM103.6 48.32C102.48 49.24 98.9599 52.12 96.9599 53.68V42.96C98.5599 44.24 102.28 47.24 103.6 48.32ZM58 77.36H67.24V71.08H58V77.36ZM53.0002 39.48H72C72.0808 39.5608 72.1544 39.6336 72.2219 39.7005L72.2223 39.7009L72.2227 39.7013C72.6563 40.1306 72.8433 40.3157 73.12 40.8V54.6C72.8907 54.794 72.7469 54.9569 72.6064 55.1162C72.4283 55.318 72.2554 55.514 71.92 55.76H53.32C53.0848 55.3941 52.8155 55.1649 52.5231 54.916C52.368 54.784 52.2064 54.6464 52.04 54.48V40.6C52.2244 40.4156 52.3245 40.2593 52.4199 40.1104C52.552 39.9042 52.6749 39.7123 53.0002 39.48ZM58.36 50.92H66.84V45H58.36V50.92ZM58 97.9199H67.24V91.6399H58V97.9199ZM67.24 87.64H58V81.36H67.24V87.64ZM90.72 28.48H34.4C33.96 28.92 32.92 29.96 32.52 30.4V65.2C32.9685 65.6485 33.3144 65.9716 33.6368 66.2727L33.6369 66.2728C33.9182 66.5356 34.1817 66.7817 34.48 67.08H90.84C91.36 66.68 92.32 65.76 92.72 65.36V30.44C92.2698 29.9898 92.0208 29.7503 91.7666 29.506L91.7663 29.5056L91.7659 29.5053C91.5009 29.2505 91.2302 28.9902 90.72 28.48ZM77.16 55.72L77.12 55.76C76.32 56.56 75.36 57.52 74.56 58.36L73.16 59.76H52.16L52.08 59.68L50.52 58.12C50.5079 58.1079 50.4921 58.0958 50.4749 58.0825C50.4352 58.0521 50.3879 58.0158 50.36 57.96L50.32 57.92C50.1016 57.7016 49.875 57.4792 49.6402 57.2486L49.6399 57.2484C49.1435 56.7609 48.6102 56.2373 48.04 55.64V39.44L48.12 39.36C49.4985 38.2571 50.699 37.0949 51.67 36.1547C51.826 36.0037 51.976 35.8584 52.12 35.72H73.08L77.2 39.4L77.24 53.2C77.2249 53.6826 77.2155 54.1084 77.2075 54.4708L77.2075 54.4712C77.1943 55.0698 77.1849 55.4958 77.16 55.72Z" fill="white"/>
</svg>
