<svg width="100" height="100" viewBox="0 0 100 100" fill="none" xmlns="http://www.w3.org/2000/svg">
<path d="M64.5469 63.8406H55.7781V75.5593H44.8469V63.8406H36.0812C35.7031 63.8406 35.3906 64.1218 35.3906 64.4625V85.7843C35.3906 86.1281 35.7 86.4062 36.0812 86.4062H64.5469C64.925 86.4062 65.2375 86.125 65.2375 85.7843V64.4625C65.2375 64.1187 64.9281 63.8406 64.5469 63.8406Z" fill="white" fill-opacity="0.2"/>
<path d="M59.7555 45.4812H40.8742C40.6211 45.4812 40.418 45.6718 40.418 45.9031V60.2968C40.418 60.5281 40.6242 60.7187 40.8742 60.7187H44.8461V53.7625L48.2117 50.3H52.4117L55.7773 53.7625V60.7187H59.7523C60.0055 60.7187 60.2086 60.5281 60.2086 60.2968V45.9031C60.2086 45.6718 60.0023 45.4812 59.7523 45.4812H59.7555Z" fill="white" fill-opacity="0.2"/>
<path d="M59.8187 35.8094C59.8187 36.0406 59.6156 36.2313 59.3719 36.2313H40.8687C40.6219 36.2313 40.4219 36.0406 40.4219 35.8094V21.7031C40.4219 21.4719 40.625 21.2812 40.8687 21.2812H59.3719C59.6188 21.2812 59.8187 21.4719 59.8187 21.7031V35.8094Z" fill="white" fill-opacity="0.2"/>
<path d="M56.8504 42.0594C56.8504 42.225 56.7098 42.3562 56.5348 42.3562H43.5285C43.3566 42.3562 43.2129 42.2219 43.2129 42.0594V39.6563C43.2129 39.4906 43.3535 39.3594 43.5285 39.3594H56.5348C56.7066 39.3594 56.8504 39.4938 56.8504 39.6563V42.0594Z" fill="white" fill-opacity="0.2"/>
<path d="M56.8504 17.8593C56.8504 18.0249 56.7098 18.1562 56.5348 18.1562H43.5285C43.3566 18.1562 43.2129 18.0218 43.2129 17.8593V13.7437C43.2129 13.578 43.3535 13.4468 43.5285 13.4468H56.5348C56.7066 13.4468 56.8504 13.5812 56.8504 13.7437V17.8593Z" fill="white" fill-opacity="0.2"/>
<g style="mix-blend-mode:multiply">
<path d="M64.5469 63.8403H55.7781V75.5591H44.8469V63.8403H36.0812C35.7031 63.8403 35.3906 64.1216 35.3906 64.4622V85.7841C35.3906 86.1278 35.7 86.406 36.0812 86.406H64.5469C64.925 86.406 65.2375 86.1247 65.2375 85.7841V64.4622C65.2375 64.1185 64.9281 63.8403 64.5469 63.8403Z" fill="white" fill-opacity="0.2"/>
<path d="M40.8773 60.7153H44.8492V53.759L48.2148 50.2965H52.4148L55.7805 53.759V60.7153H59.7555C60.0086 60.7153 60.2117 60.5247 60.2117 60.2934V45.8997C60.2117 45.6684 60.0055 45.4778 59.7555 45.4778H40.8742C40.6211 45.4778 40.418 45.6684 40.418 45.8997V60.2934C40.418 60.5247 40.6242 60.7153 40.8742 60.7153H40.8773Z" fill="white" fill-opacity="0.2"/>
<path d="M40.8687 36.2308H59.3719C59.6188 36.2308 59.8187 36.0401 59.8187 35.8089V21.7026C59.8187 21.4714 59.6156 21.2808 59.3719 21.2808H40.8687C40.6219 21.2808 40.4219 21.4714 40.4219 21.7026V35.8089C40.4219 36.0401 40.625 36.2308 40.8687 36.2308Z" fill="white" fill-opacity="0.2"/>
<path d="M43.5285 39.356C43.3566 39.356 43.2129 39.4903 43.2129 39.6528V42.056C43.2129 42.2216 43.3535 42.356 43.5285 42.356H56.5348C56.7066 42.356 56.8504 42.2216 56.8504 42.056V39.6528C56.8504 39.4872 56.7098 39.356 56.5348 39.356H43.5285Z" fill="white" fill-opacity="0.2"/>
<path d="M43.5285 18.1559H56.5348C56.7066 18.1559 56.8504 18.0215 56.8504 17.8559V13.7402C56.8504 13.5746 56.7098 13.4434 56.5348 13.4434H43.5285C43.3566 13.4434 43.2129 13.5777 43.2129 13.7402V17.8559C43.2129 18.0215 43.3535 18.1559 43.5285 18.1559Z" fill="white" fill-opacity="0.2"/>
</g>
<path d="M52.6578 63.8408H47.9766V72.4346H52.6578V63.8408Z" fill="white" fill-opacity="0.6"/>
<path d="M49.5359 53.425L47.9766 55.0313V60.7157H52.6578V55.0313L51.0984 53.425H49.5359Z" fill="white" fill-opacity="0.6"/>
<path d="M79.402 72.4845C79.7551 72.4845 80.0457 72.197 80.0457 71.8408V69.5158C80.0457 69.1626 79.7582 68.872 79.402 68.872H74.1613C73.8082 68.872 73.5176 68.5845 73.5176 68.2283V50.7314C73.5176 50.3783 73.2301 50.0876 72.8738 50.0876H63.5832C63.2301 50.0876 62.9395 50.3751 62.9395 50.7314V52.9064C62.9395 53.2595 63.227 53.5501 63.5832 53.5501H69.1176C69.4707 53.5501 69.7613 53.8376 69.7613 54.1908V71.8345C69.7613 72.1876 70.0488 72.4783 70.4051 72.4783H79.402V72.4845Z" fill="white" fill-opacity="0.6"/>
<path d="M91.4426 59.7783V49.8471H84.6301V44.9439L88.5551 38.7877V23.3564L76.0176 19.4627C75.5332 19.3127 71.727 18.5627 69.7801 18.5627H59.977V10.3252H40.1145V18.5627H30.4613C28.5145 18.5627 24.7113 19.3127 24.227 19.4627L11.6863 23.2877V38.7908L15.6113 44.9471V49.8502H8.79883V59.7814H25.7082V33.8314H29.052L40.0895 41.2752L40.1113 42.4439H37.2926C37.2926 42.4439 37.3051 60.5814 37.3207 60.7189H32.2676V89.5377H68.3613V75.6127H83.1676V65.7533H76.6426V59.7814H91.4394L91.4426 59.7783ZM37.2957 24.0377V35.6158L30.5488 31.0658C30.5488 31.0658 30.3113 30.7033 29.5207 30.7033C28.7301 30.7033 25.4426 30.6971 25.4426 30.6971C25.2207 30.6971 24.9457 30.7783 24.7082 30.8971C24.5676 30.9689 24.4395 31.0564 24.3457 31.1502L23.0395 32.4564C22.9145 32.5814 22.5863 33.4658 22.5863 33.5533V56.6533H12.5676C12.3457 56.6533 11.9238 56.1002 11.9238 56.0127V53.7658C11.9238 53.4127 12.2113 52.9752 12.5676 52.9752H18.7363V44.8408C18.7363 44.4877 18.6176 43.9346 18.477 43.6127L15.0738 38.4564C15.0551 38.4158 14.8145 37.8502 14.8145 37.5408V26.2877C14.8145 25.6939 15.427 25.4564 15.427 25.4564L18.6676 24.4533L25.1488 22.4502C25.402 22.3721 28.9145 21.6908 30.4613 21.6908H37.2957V24.0471V24.0377ZM59.977 41.3877L71.1863 33.8283C71.1863 33.8283 73.7238 33.8252 74.5301 33.8221V46.9689L63.3395 46.9814V42.3658H59.9582L59.9738 41.3846L59.977 41.3877ZM43.2176 13.7439C43.2176 13.5783 43.3582 13.4471 43.5332 13.4471H56.5395C56.5613 13.4471 56.5801 13.4533 56.602 13.4596C56.6426 13.4689 56.6801 13.4814 56.7145 13.5033C56.7988 13.5564 56.8582 13.6439 56.8582 13.7471V17.8627C56.8582 17.9564 56.8082 18.0377 56.7363 18.0908C56.6863 18.1283 56.627 18.1533 56.5582 18.1564C56.552 18.1564 56.5457 18.1596 56.5426 18.1596H43.5363C43.5145 18.1596 43.4957 18.1533 43.477 18.1471C43.4551 18.1439 43.4332 18.1439 43.4145 18.1346C43.3019 18.0877 43.2207 17.9814 43.2207 17.8596V13.7439H43.2176ZM40.4207 21.7033C40.4207 21.4721 40.6238 21.2814 40.8676 21.2814H59.3707C59.6176 21.2814 59.8176 21.4721 59.8176 21.7033V35.8096C59.8176 35.9471 59.7457 36.0689 59.6332 36.1471C59.5582 36.2002 59.4676 36.2314 59.3676 36.2314H40.8645C40.802 36.2314 40.7426 36.2189 40.6895 36.1971C40.5301 36.1314 40.4145 35.9846 40.4145 35.8096V21.7033H40.4207ZM56.852 39.6564V42.0596C56.852 42.1627 56.7926 42.2471 56.7082 42.3033C56.6863 42.3158 56.6645 42.3314 56.6426 42.3377C56.6082 42.3502 56.5738 42.3564 56.5363 42.3564H43.5301C43.3582 42.3564 43.2145 42.2221 43.2145 42.0564V39.6533C43.2145 39.5721 43.2488 39.4971 43.3082 39.4439C43.3645 39.3908 43.4426 39.3564 43.5301 39.3564H56.5363C56.6301 39.3564 56.7113 39.3971 56.7707 39.4596C56.8207 39.5127 56.852 39.5783 56.852 39.6564ZM40.4207 45.9033C40.4207 45.6721 40.627 45.4814 40.877 45.4814H59.7582C60.0113 45.4814 60.2145 45.6721 60.2145 45.9033V60.2971C60.2145 60.5283 60.0082 60.7189 59.7582 60.7189H55.7832V53.7627L52.4176 50.3002H48.2176L44.852 53.7627V60.7189H40.8801C40.627 60.7189 40.4238 60.5283 40.4238 60.2971V45.9033H40.4207ZM47.977 60.7158V55.0283L49.5363 53.4221H51.0957L52.6551 55.0283V60.7158H47.9738H47.977ZM52.6582 63.8408V72.4346H47.977V63.8408H52.6582ZM65.2395 85.7877C65.2395 86.1314 64.9301 86.4096 64.5488 86.4096H36.0832C35.7051 86.4096 35.3926 86.1283 35.3926 85.7877V64.4658C35.3926 64.1221 35.702 63.8439 36.0832 63.8439H44.8488V75.5627H55.7801V63.8439H64.5488C64.927 63.8439 65.2395 64.1252 65.2395 64.4658V85.7877ZM66.6395 60.7158H63.3145L63.3426 56.6658L66.6426 56.6783V60.7158H66.6395ZM79.4019 68.8752C79.527 68.8752 79.6426 68.9127 79.7426 68.9752C79.9238 69.0877 80.0457 69.2877 80.0457 69.5158V71.8408C80.0457 72.1939 79.7582 72.4814 79.4019 72.4814H70.4051C70.3832 72.4814 70.3613 72.4783 70.3395 72.4752C70.0176 72.4408 69.7613 72.1721 69.7613 71.8408V54.1971C69.7613 54.0002 69.6707 53.8252 69.5301 53.7096C69.4176 53.6158 69.277 53.5564 69.1207 53.5564H63.5863C63.2332 53.5564 62.9426 53.2689 62.9426 52.9127V50.7377C62.9426 50.3846 63.2301 50.0939 63.5863 50.0939H72.877C72.977 50.0939 73.0738 50.1189 73.1582 50.1627C73.3707 50.2689 73.5176 50.4846 73.5176 50.7377V68.2346C73.5176 68.5877 73.8051 68.8783 74.1613 68.8783H79.4019V68.8752ZM75.8957 31.1502C75.8019 31.0564 75.6738 30.9689 75.5332 30.8971C75.2957 30.7752 75.0207 30.6971 74.7988 30.6971C74.7988 30.6971 71.5082 30.7033 70.7207 30.7033C69.9332 30.7033 69.6926 31.0658 69.6926 31.0658L62.9457 35.6158V21.6814H69.7801C71.327 21.6814 74.8395 22.3627 75.0926 22.4408L81.5738 24.4439L84.8145 25.4471C84.8145 25.4471 85.4269 25.6846 85.4269 26.2783V37.5314C85.4269 37.8408 85.1832 38.4096 85.1676 38.4471L81.7645 43.6033C81.6207 43.9252 81.5051 44.4783 81.5051 44.8314V52.9658H87.6738C88.027 52.9658 88.3176 53.4033 88.3176 53.7564V56.0033C88.3176 56.0908 87.8957 56.6439 87.6738 56.6439H77.6551V33.5439C77.6551 33.4564 77.327 32.5721 77.202 32.4471L75.8957 31.1408V31.1502Z" fill="white"/>
</svg>
