<svg width="128" height="128" viewBox="0 0 128 128" fill="none" xmlns="http://www.w3.org/2000/svg">
<path d="M17.0024 62.7545L23.5985 58.0898H32.0476V68.7056H23.5985L17.0024 64.0409V62.7545ZM76.0104 17.5784C75.41 16.9773 74.6136 17.0134 73.8451 17.0134H71.1434C70.427 17.0134 69.7226 16.9412 69.0702 17.3139C68.4578 17.6666 67.9615 18.3278 67.4692 18.8207C67.205 19.0852 66.9369 19.3497 66.6727 19.6182C66.4486 19.8466 66.1964 20.2033 66.6847 20.2875C66.9129 20.3275 67.177 20.2955 67.4052 20.2955H68.758C69.5625 20.2955 70.403 20.1913 71.1154 20.6561C71.8078 21.109 72.3442 21.8945 72.3522 22.728C72.3722 24.2629 72.3522 25.8017 72.3522 27.3366C72.3522 28.1541 72.056 28.7512 71.4796 29.3283C70.9033 29.9054 70.2469 30.0897 69.4504 30.0897H66.8488C66.2244 30.0897 65.56 30.1498 64.9437 30.0296C64.3073 29.9054 63.791 29.6048 63.2306 29.3002C62.4581 28.8795 61.6857 28.4627 60.9132 28.0419C59.7725 27.4207 58.4957 26.475 57.1509 26.4469C56.0582 26.4269 46.1202 26.4068 45.0275 26.4469C44.3511 26.471 43.8468 26.7996 43.3865 27.2564C42.7822 27.8616 42.1738 28.4707 41.5694 29.0758C41.0491 29.5968 40.5928 30.1017 40.5608 30.8912C40.5448 31.304 40.5608 35.7001 40.5608 37.4835C40.5608 38.6256 40.3046 40.1324 41.1612 41.0341C43.0223 42.9937 44.9875 44.8652 46.8967 46.7768C47.6571 47.5382 48.4976 48.1914 48.5016 49.3616C48.5056 50.127 48.5697 75.9551 48.5016 77.7985C48.4576 78.9487 47.409 79.7061 46.6645 80.4514C45.3837 81.7338 41.8896 85.2323 41.4213 85.7012C40.969 86.1541 40.6008 86.635 40.5568 87.3122C40.4848 88.5024 40.5568 89.7167 40.5568 90.9069V95.7279C40.5568 96.3731 40.6609 96.9782 41.1211 97.4831C41.5814 97.9881 43.4426 99.9558 44.0229 100.276C44.4672 100.525 44.9115 100.561 45.3957 100.561H55.1097C56.1903 100.561 57.4231 100.709 58.4477 100.288C58.908 100.096 59.3443 99.8195 59.7845 99.579C60.585 99.1422 61.3855 98.7094 62.19 98.2726C63.3427 97.6434 64.4033 96.9181 65.7642 96.9181C66.5927 96.9181 69.4384 96.874 70.0228 96.9221C71.0434 97.0063 72.1 98.0322 72.3122 99.026C72.4282 99.5791 72.4002 104.937 71.9239 105.57C71.4116 106.255 70.6832 106.708 69.8186 106.716C69.0021 106.72 68.1856 106.716 67.3691 106.716C67.137 106.716 66.8608 106.676 66.6327 106.732C66.1684 106.84 66.4846 107.205 66.6887 107.409C67.2691 107.998 67.8614 108.584 68.4458 109.169C68.9501 109.674 69.5064 109.994 70.2429 109.998C71.0274 109.998 73.9492 110.022 74.6216 109.998C75.378 109.974 75.8823 109.561 76.3826 109.06C77.4233 108.018 78.5119 107.005 79.5125 105.927C79.9968 105.402 80.0849 104.776 80.0849 104.107C80.0849 103.33 80.1649 99.0901 80.0849 97.7637C80.0329 96.9381 79.5125 96.4452 78.9762 95.9082L77.0791 94.0087C76.2986 93.2272 75.6182 92.3255 74.4134 92.3215C71.9639 92.3135 53.4487 92.3215 52.1599 92.3215C51.3434 92.3215 50.4828 92.4297 49.7744 91.9288C49.4742 91.7164 49.2221 91.4159 48.9619 91.1554C48.6337 90.8268 48.3375 90.5342 48.1654 90.0894C47.9013 89.4001 48.0213 88.5385 48.0213 87.8212C48.0213 87.1038 47.9013 86.2382 48.1654 85.5529C48.4096 84.9238 48.9699 84.4789 49.4342 84.0141C50.0706 83.3769 50.703 82.7437 51.3394 82.1065C51.8837 81.5615 52.392 81.0566 52.424 80.219C52.444 79.7541 52.424 49.4257 52.424 48.8807C52.424 47.6544 52.6682 46.2478 51.7276 45.298C50.695 44.2561 49.6223 43.2462 48.6137 42.1802C48.0414 41.5751 48.0213 40.8658 48.0213 40.0963C48.0213 39.3269 48.0133 38.4853 48.0213 37.6798C48.0334 36.71 48.6657 36.149 49.2941 35.5198C49.7704 35.0429 50.2947 34.7023 50.9952 34.6863C51.7436 34.6702 52.4961 34.6863 53.2445 34.6863H72.9726C73.5409 34.6863 74.1293 34.7303 74.6976 34.6823C75.5061 34.6141 75.9944 34.0851 76.5187 33.5562C77.1511 32.923 79.2324 30.8992 79.5846 30.4784C80.0649 29.9054 80.0769 29.2521 80.0769 28.5629V23.4894C80.0769 23.0486 80.1289 22.5597 80.0369 22.1269C79.8848 21.4095 79.4085 20.9848 78.9202 20.4999C77.9476 19.526 76.971 18.5482 75.9984 17.5744L76.0104 17.5784Z" fill="white" fill-opacity="0.2"/>
<path d="M107.181 60.3642L117.996 49.3437L115.138 43.7252H88.398L75.2259 57.3105H68.8701V49.9728L63.7389 44.8353H56.4705C56.4505 44.7832 52.0278 39.9181 52.0278 39.9181V38.6838L76.935 38.5596L84.0873 31.1859V20.5541L77.3272 13.0681L68.6419 13L63.0665 18.1055L63.1546 21.7884L66.1484 23.8722L68.3457 23.8803V26.0643H65.6961L58.3596 22.4215H46.9327L38.0553 13.537L31.7834 13.4368L27.6209 17.2038L27.6289 23.3913L36.5584 32.328V41.465L39.304 44.8313H36.2262L32.2317 49.2395V54.0644H22.3257L13 60.6607V66.3393L22.3257 72.9356H32.2317V77.7606L36.2262 82.1688H39.304L36.5584 85.535V94.672L27.6289 103.609L27.6209 109.796L31.7834 113.563L38.0553 113.463L46.9327 104.574H58.3596L65.6961 100.932H68.3457V103.116L66.1484 103.124L63.1546 105.208L63.0665 108.89L68.6419 113.996L77.3272 113.928L84.0913 106.446V95.8141L76.939 88.4404L52.0318 88.3162V87.0819C52.0318 87.0819 56.4585 82.2168 56.4745 82.1647H63.7429L68.8741 77.0272V69.6895H75.2299L88.402 83.2748H115.142L118 77.6563L107.185 66.6358V60.3642H107.181ZM32.0436 68.6917H23.5945L16.9984 64.027V62.7406L23.5945 58.0759H32.0436V68.6917ZM108.906 47.7928C108.906 47.7928 108.918 47.7928 108.922 47.7888C108.979 47.7767 109.031 47.7647 109.087 47.7567C109.099 47.7567 109.107 47.7527 109.119 47.7527C109.183 47.7447 109.243 47.7407 109.299 47.7407H113.341C113.613 47.7407 113.757 47.8409 113.753 47.9891C113.753 48.0773 113.693 48.1895 113.577 48.3057L104.576 57.3185H99.0044L107.942 48.3097C108.166 48.0853 108.546 47.8889 108.906 47.8008V47.7928ZM99.4647 47.8529C99.5287 47.8288 99.5888 47.8128 99.6528 47.7968C99.6608 47.7968 99.6648 47.7928 99.6728 47.7928C99.7289 47.7807 99.7849 47.7687 99.8369 47.7607C99.8489 47.7607 99.8609 47.7567 99.873 47.7527C99.937 47.7447 99.997 47.7407 100.057 47.7407H104.1C104.536 47.7407 104.644 47.9931 104.332 48.3057L95.3302 57.3185H89.7588L98.6962 48.3097C98.8763 48.1254 99.1645 47.9651 99.4567 47.8609L99.4647 47.8529ZM84.2114 53.5795L89.4466 48.3017C89.7548 47.9891 90.3632 47.7367 90.8034 47.7367H94.8459C95.2822 47.7367 95.3902 47.9891 95.078 48.3017L86.0765 57.3145H80.5051L84.2074 53.5795H84.2114ZM56.4305 48.8427H62.5422C62.6983 48.8427 62.9144 48.9309 63.0225 49.0431L64.6715 50.6942C64.7796 50.8024 64.8716 51.0188 64.8716 51.1751V57.3105H56.4345V48.8427H56.4305ZM38.2914 26.6815C38.0072 26.962 37.7551 27.2906 37.535 27.6433L31.6514 21.7563C31.5473 21.6521 31.4633 21.4477 31.4633 21.3035V19.2957C31.4633 19.1474 31.5473 18.9471 31.6514 18.8429L33.2043 17.288C33.3084 17.1838 33.5125 17.0996 33.6566 17.0996H35.6738C35.8219 17.0996 36.022 17.1838 36.1261 17.288L42.0657 23.2351C41.5974 23.4955 41.1652 23.8081 40.8009 24.1688L38.2874 26.6855L38.2914 26.6815ZM36.2302 51.1751C36.2302 51.0188 36.3182 50.8024 36.4303 50.6942L38.0793 49.0431C38.1874 48.9349 38.4035 48.8427 38.5596 48.8427H43.3025L44.4992 50.041V57.3105H36.2302V51.1751ZM36.2222 61.3179H44.4992V65.3054H36.2222V61.3179ZM38.5596 78.1493C38.4035 78.1493 38.1874 78.0611 38.0793 77.9489L36.4303 76.2978C36.3222 76.1896 36.2302 75.9732 36.2302 75.8169V69.3128H44.4992V76.951L43.3025 78.1493H38.5596ZM36.1301 109.708C36.026 109.812 35.8219 109.896 35.6778 109.896H33.6606C33.5125 109.896 33.3124 109.812 33.2083 109.708L31.6554 108.153C31.5513 108.049 31.4673 107.845 31.4673 107.7V105.693C31.4673 105.544 31.5513 105.344 31.6554 105.24L37.539 99.3527C37.7631 99.7054 38.0152 100.034 38.2954 100.315L40.8049 102.827C41.1652 103.188 41.6014 103.504 42.0697 103.765L36.1301 109.712V109.708ZM52.428 80.2051C52.392 81.0427 51.8837 81.5476 51.3434 82.0926L49.4382 84.0002C48.9739 84.465 48.4096 84.9099 48.1694 85.539C47.9053 86.2243 48.0253 87.0899 48.0253 87.8073C48.0253 88.5246 47.9013 89.3902 48.1694 90.0755C48.3415 90.5203 48.6417 90.8168 48.9659 91.1415C49.2261 91.4019 49.4742 91.7025 49.7784 91.9149C50.4909 92.4158 51.3474 92.3076 52.1639 92.3076C53.4527 92.3076 71.9679 92.2996 74.4174 92.3076C75.6222 92.3116 76.3026 93.2133 77.0831 93.9948C77.7154 94.6279 78.3478 95.2611 78.9802 95.8943C79.5165 96.4313 80.0369 96.9242 80.0889 97.7498C80.1689 99.0802 80.0889 103.32 80.0889 104.094C80.0889 104.763 80.0008 105.392 79.5165 105.913C78.5119 106.991 77.4273 108.005 76.3866 109.047C75.8863 109.548 75.382 109.96 74.6256 109.985C73.9532 110.009 71.0314 109.985 70.2469 109.985C69.5144 109.985 68.9541 109.66 68.4498 109.155C67.8654 108.57 67.2731 107.989 66.6927 107.396C66.4886 107.191 66.1764 106.827 66.6367 106.718C66.8648 106.662 67.145 106.702 67.3731 106.702C68.1896 106.702 69.0061 106.706 69.8226 106.702C70.6872 106.698 71.4156 106.242 71.9279 105.556C72.4002 104.923 72.4322 99.5651 72.3162 99.0121C72.108 98.0223 71.0514 96.9964 70.0268 96.9082C69.4424 96.8601 66.5967 96.9042 65.7682 96.9042C64.4073 96.9042 63.3467 97.6295 62.194 98.2587C61.3935 98.6955 60.593 99.1283 59.7885 99.5651C59.3523 99.8016 58.916 100.082 58.4517 100.274C57.4311 100.695 56.1943 100.547 55.1137 100.547H45.3997C44.9155 100.547 44.4712 100.511 44.0269 100.262C43.4466 99.9418 41.5654 97.9541 41.1251 97.4692C40.6649 96.9683 40.5608 96.3592 40.5608 95.714V90.893C40.5608 89.7028 40.4888 88.4885 40.5608 87.2983C40.6008 86.621 40.973 86.1361 41.4253 85.6873C41.8936 85.2224 45.3877 81.7199 46.6685 80.4375C47.413 79.6921 48.4616 78.9347 48.5056 77.7846C48.5737 75.9412 48.5096 50.1091 48.5056 49.3477C48.4976 48.1775 47.6571 47.5203 46.9007 46.7628C44.9915 44.8513 43.0263 42.9798 41.1652 41.0202C40.3046 40.1145 40.5648 38.6117 40.5648 37.4695C40.5648 35.6862 40.5488 31.286 40.5648 30.8773C40.5968 30.0878 41.0571 29.5789 41.5734 29.0619C42.1778 28.4568 42.7862 27.8476 43.3905 27.2425C43.8468 26.7857 44.3551 26.457 45.0315 26.433C46.1202 26.3929 56.0622 26.413 57.1549 26.433C58.4997 26.4611 59.7765 27.4068 60.9172 28.028C61.6897 28.4488 62.4622 28.8655 63.2346 29.2863C63.795 29.5909 64.3113 29.8914 64.9477 30.0157C65.564 30.1359 66.2284 30.0758 66.8528 30.0758H69.4544C70.2509 30.0758 70.8993 29.8995 71.4836 29.3144C72.056 28.7413 72.3562 28.1402 72.3562 27.3227C72.3562 25.7878 72.3762 24.2489 72.3562 22.7141C72.3482 21.8765 71.8119 21.0911 71.1194 20.6422C70.407 20.1774 69.5705 20.2816 68.762 20.2816H67.4092C67.177 20.2816 66.9169 20.3176 66.6887 20.2735C66.2004 20.1894 66.4566 19.8327 66.6767 19.6043C66.9409 19.3358 67.209 19.0713 67.4732 18.8068C67.9655 18.3139 68.4618 17.6487 69.0742 17.3C69.7226 16.9273 70.431 16.9994 71.1474 16.9994H73.8491C74.6176 16.9994 75.418 16.9634 76.0144 17.5645C76.987 18.5383 77.9636 19.5161 78.9362 20.4899C79.4245 20.9789 79.9008 21.3996 80.0529 22.117C80.1449 22.5538 80.0929 23.0387 80.0929 23.4795V28.553C80.0929 29.2422 80.0809 29.8955 79.6006 30.4685C79.2484 30.8853 77.1671 32.9091 76.5347 33.5462C76.0064 34.0752 75.5181 34.6082 74.7136 34.6723C74.1453 34.7204 73.5569 34.6763 72.9886 34.6763H53.2605C52.5121 34.6763 51.7596 34.6603 51.0112 34.6763C50.3107 34.6924 49.7864 35.033 49.3101 35.5099C48.6818 36.1391 48.0494 36.7001 48.0374 37.6699C48.0294 38.4754 48.0374 39.2809 48.0374 40.0864C48.0374 40.8919 48.0574 41.5612 48.6297 42.1703C49.6383 43.2363 50.711 44.2462 51.7436 45.2881C52.6842 46.2379 52.44 47.6445 52.44 48.8708C52.44 49.4158 52.4601 79.7442 52.44 80.2091L52.428 80.2051ZM64.8676 75.8129C64.8676 75.9692 64.7796 76.1856 64.6675 76.2938L63.0185 77.9449C62.9104 78.0531 62.6943 78.1453 62.5382 78.1453H56.4265V69.3088H64.8636V75.8129H64.8676ZM56.4305 65.3014V61.3139H103.179V65.3014H56.4305ZM95.1821 79.5559H91.1396C90.9195 79.5559 90.6593 79.4918 90.4112 79.3916C90.3512 79.3675 90.2911 79.3395 90.2311 79.3074C90.055 79.2153 89.8989 79.1071 89.7828 78.9908L84.3795 73.5447L80.1769 69.3088H85.7443L95.4142 78.9908C95.7224 79.2994 95.6184 79.5559 95.1821 79.5559ZM104.44 79.5559H100.397C100.337 79.5559 100.277 79.5519 100.213 79.5439C100.201 79.5439 100.189 79.5399 100.177 79.5359C100.125 79.5278 100.069 79.5158 100.013 79.5038C100.005 79.5038 100.001 79.5038 99.993 79.4998C99.929 79.4838 99.8689 79.4637 99.8049 79.4437C99.5127 79.3395 99.2246 79.1792 99.0444 78.9948L89.4386 69.3128H95.006L104.676 78.9948C104.984 79.3034 104.88 79.5599 104.444 79.5599L104.44 79.5559ZM113.914 78.9908C113.946 79.0229 113.97 79.055 113.994 79.087C114.11 79.2433 114.118 79.3755 114.03 79.4597C113.962 79.5198 113.845 79.5559 113.681 79.5559H109.639C109.583 79.5559 109.523 79.5519 109.459 79.5439C109.451 79.5439 109.439 79.5399 109.427 79.5399C109.371 79.5318 109.319 79.5198 109.263 79.5078C109.259 79.5078 109.251 79.5078 109.247 79.5038C109.119 79.4717 108.987 79.4236 108.862 79.3715C108.634 79.2714 108.426 79.1391 108.282 78.9948L98.6762 69.3128H104.244L113.914 78.9948V78.9908Z" fill="white"/>
<path d="M99.4661 47.8524C99.5301 47.8284 99.5901 47.8123 99.6542 47.7963C99.6622 47.7963 99.6662 47.7923 99.6742 47.7923C99.7302 47.7803 99.7863 47.7682 99.8383 47.7602C99.8503 47.7602 99.8623 47.7562 99.8743 47.7522C99.9383 47.7442 99.9984 47.7402 100.058 47.7402H104.101C104.537 47.7402 104.645 47.9927 104.333 48.3052L95.3315 57.318H89.7601L98.6976 48.3092C98.8777 48.1249 99.1659 47.9646 99.458 47.8604L99.4661 47.8524ZM104.441 79.5554H100.399C100.339 79.5554 100.279 79.5514 100.215 79.5434C100.203 79.5434 100.19 79.5394 100.178 79.5354C100.126 79.5274 100.07 79.5153 100.014 79.5033C100.006 79.5033 100.002 79.5033 99.9944 79.4993C99.9303 79.4833 99.8703 79.4632 99.8063 79.4432C99.5141 79.339 99.2259 79.1787 99.0458 78.9944L89.4399 69.3123H95.0073L104.677 78.9944C104.985 79.3029 104.881 79.5594 104.445 79.5594L104.441 79.5554Z" fill="white" fill-opacity="0.2"/>
</svg>
